# xmcd
#
# Track frame offsets:
#	150
#	20848
#	42518
#	59455
#	80471
#	105596
#	129055
#	151132
#	174815
#	202571
#	222145
#	244352
#
# Disc length: 3446 seconds
#
# Revision: 1
# Processed by: cddbd v1.5.2PL0 Copyright (c) Steve Scherf et al.
# Submitted via: EZCDAudioConverter 8.0.2.1
#
DISCID=920d740c
DTITLE=Various Artist - My Saigon. Nếu Đời Không Có Anh [CD2)
DYEAR=2017
DGENRE=Mainstream Rock
TTITLE0=Thế Sơn - Sài Gòn em ở đó
TTITLE1=Hoàng Anh Thư - Một thoàng Sài Gòn
TTITLE2=Anh Tuấn, Bích Vân - Hoa bướm ngày xua
TTITLE3=Nguyễn Khắc Huy - Xin gọi nhau là cố nhân
TTITLE4=Diễm Liên - Sài Gòn chiều mưa
TTITLE5=Diễm Ngân - Nếu Đời Không Có Anh
TTITLE6=Trịnh Nam Sơn, Vũ Tuấn Đức - Em phố xưa Sài Gòn
TTITLE7=Gia Huy - Nhớ đêm mưa Sài Gòn
TTITLE8=Y Phụng - Tiếng ca u hoài
TTITLE9=Nguyễn Khắc Huy, Khánh Trân - Sài Gòn kỷ niệm
TTITLE10=Y Phương - Một thuở Sài Gòn
TTITLE11=V.A - Nhớ Sài Gòn
EXTD=
EXTT0=
EXTT1=
EXTT2=
EXTT3=
EXTT4=
EXTT5=
EXTT6=
EXTT7=
EXTT8=
EXTT9=
EXTT10=
EXTT11=
PLAYORDER=
